<svg xmlns="http://www.w3.org/2000/svg">
    <symbol id="side" viewBox="0 0 1000 1000">
        <path class="b"
            d="M253.83,797.5c-10.1,0-18.33-8.22-18.33-18.33v-262.88c0-10.37,8.43-18.8,18.8-18.8h535.88c10.11,0,18.33,8.22,18.33,18.33v263.35c0,10.11-8.22,18.33-18.33,18.33H253.83Z" />
        <path class="b"
            d="M790.17,500c8.73,0,15.83,7.1,15.83,15.83v263.35c0,8.73-7.1,15.83-15.83,15.83H253.83c-8.73,0-15.83-7.1-15.83-15.83v-262.88c0-8.99,7.31-16.3,16.3-16.3h535.88M790.17,495H254.3c-11.76,0-21.3,9.54-21.3,21.3v262.88c0,11.5,9.32,20.83,20.83,20.83h536.35c11.5,0,20.83-9.32,20.83-20.83v-263.35c0-11.5-9.32-20.83-20.83-20.83h0Z" />
    </symbol>

    <symbol id="triangle" viewBox="0 0 1000 1000">
        <path class="b"
            d="M730.71,505.6L188.84,353.46c-7.74-2.17-15.42,3.63-15.44,11.66-.3,91.46-.6,182.92-.9,274.38-.03,7.94,7.42,13.78,15.12,11.86,180.98-45.09,361.96-90.18,542.93-135.26,5.41-1.35,5.52-8.99.16-10.5Z" />
    </symbol>

    <symbol id="fire" viewbox="0 0 1000 1000">
        <path class="b"
            d="M83.89,1.19c-19.44,43.93-37.2,78.38-50,102C11.79,143.99-2.03,164.54.89,195.19c.76,8.01,3.52,33.13,23,51,17.84,16.37,39.86,17.62,64,19,23.24,1.33,41.22,2.39,60-9,2.05-1.24,30.67-19.22,35-52,1.21-9.14.29-17.66-3-30-10.15-38.01-30.18-64.7-37-74-16.22-22.11-37.19-54.18-59-99Z" />
    </symbol>
</svg>