<?xml version="1.0" encoding="utf-8"?>
<!-- Generator: Adobe Illustrator 28.1.0, SVG Export Plug-In . SVG Version: 6.00 Build 0)  -->
<svg version="1.1" id="a" xmlns="http://www.w3.org/2000/svg" xmlns:xlink="http://www.w3.org/1999/xlink" x="0px" y="0px"
	 viewBox="0 0 835.6 800" style="enable-background:new 0 0 835.6 800;" xml:space="preserve">
<g>
	<path d="M149.6,305.6c-10.1,0-18.3-8.2-18.3-18.3V24.4c0-10.4,8.4-18.8,18.8-18.8H686c10.1,0,18.3,8.2,18.3,18.3v263.4
		c0,10.1-8.2,18.3-18.3,18.3L149.6,305.6L149.6,305.6z"/>
	<path d="M686,8.1c8.7,0,15.8,7.1,15.8,15.8v263.4c0,8.7-7.1,15.8-15.8,15.8H149.6c-8.7,0-15.8-7.1-15.8-15.8V24.4
		c0-9,7.3-16.3,16.3-16.3L686,8.1 M686,3.1H150.1c-11.8,0-21.3,9.5-21.3,21.3v262.9c0,11.5,9.3,20.8,20.8,20.8H686
		c11.5,0,20.8-9.3,20.8-20.8V23.9C706.8,12.4,697.5,3.1,686,3.1L686,3.1L686,3.1z"/>
</g>
</svg>
